<mxfile host="app.diagrams.net" modified="2021-07-18T22:12:43.308Z" agent="5.0 (Windows NT 10.0; Win64; x64) AppleWebKit/537.36 (KHTML, like Gecko) Chrome/91.0.4472.124 Safari/537.36" etag="HQfL6nhEPCQPFWj3xtwF" version="14.9.0" type="github">
  <diagram name="Page-1" id="10a91c8b-09ff-31b1-d368-03940ed4cc9e">
    <mxGraphModel dx="2168" dy="1828" grid="1" gridSize="10" guides="1" tooltips="1" connect="1" arrows="1" fold="1" page="1" pageScale="1" pageWidth="1100" pageHeight="850" background="none" math="0" shadow="0">
      <root>
        <mxCell id="0" />
        <mxCell id="1" parent="0" />
        <mxCell id="yR00Pz26jBC9L6xIw8Jb-5" style="rounded=0;orthogonalLoop=1;jettySize=auto;html=1;endArrow=none;endFill=0;exitX=0.5;exitY=1;exitDx=0;exitDy=0;" edge="1" parent="1" source="yR00Pz26jBC9L6xIw8Jb-103" target="yR00Pz26jBC9L6xIw8Jb-1">
          <mxGeometry relative="1" as="geometry" />
        </mxCell>
        <mxCell id="yR00Pz26jBC9L6xIw8Jb-33" style="edgeStyle=none;rounded=0;orthogonalLoop=1;jettySize=auto;html=1;exitX=0.5;exitY=1;exitDx=0;exitDy=0;entryX=0.5;entryY=0;entryDx=0;entryDy=0;endArrow=none;endFill=0;" edge="1" parent="1" source="yR00Pz26jBC9L6xIw8Jb-102" target="62893188c0fa7362-3">
          <mxGeometry relative="1" as="geometry" />
        </mxCell>
        <mxCell id="62893188c0fa7362-1" value="Widget" style="whiteSpace=wrap;html=1;rounded=1;shadow=1;labelBackgroundColor=none;strokeWidth=1;fontFamily=Verdana;fontSize=12;align=center;" parent="1" vertex="1">
          <mxGeometry x="820" y="-200" width="130" height="60" as="geometry" />
        </mxCell>
        <mxCell id="62893188c0fa7362-2" value="&lt;span&gt;Scaffold&lt;/span&gt;" style="whiteSpace=wrap;html=1;rounded=1;shadow=1;labelBackgroundColor=none;strokeWidth=1;fontFamily=Verdana;fontSize=12;align=center;" parent="1" vertex="1">
          <mxGeometry x="240" y="80" width="120" height="60" as="geometry" />
        </mxCell>
        <mxCell id="yR00Pz26jBC9L6xIw8Jb-19" style="edgeStyle=none;rounded=0;orthogonalLoop=1;jettySize=auto;html=1;endArrow=none;endFill=0;" edge="1" parent="1" source="62893188c0fa7362-3" target="62893188c0fa7362-9">
          <mxGeometry relative="1" as="geometry" />
        </mxCell>
        <mxCell id="yR00Pz26jBC9L6xIw8Jb-21" style="edgeStyle=none;rounded=0;orthogonalLoop=1;jettySize=auto;html=1;exitX=0.75;exitY=1;exitDx=0;exitDy=0;entryX=0.61;entryY=0.003;entryDx=0;entryDy=0;entryPerimeter=0;endArrow=none;endFill=0;" edge="1" parent="1" source="62893188c0fa7362-3" target="yR00Pz26jBC9L6xIw8Jb-20">
          <mxGeometry relative="1" as="geometry" />
        </mxCell>
        <mxCell id="62893188c0fa7362-3" value="&lt;span&gt;Scaffold&lt;/span&gt;" style="whiteSpace=wrap;html=1;rounded=1;shadow=1;labelBackgroundColor=none;strokeWidth=1;fontFamily=Verdana;fontSize=12;align=center;" parent="1" vertex="1">
          <mxGeometry x="730" y="70" width="120" height="60" as="geometry" />
        </mxCell>
        <mxCell id="62893188c0fa7362-5" value="" style="rounded=0;html=1;labelBackgroundColor=none;startArrow=none;startFill=0;startSize=5;endArrow=none;endFill=0;endSize=5;jettySize=auto;orthogonalLoop=1;strokeWidth=1;fontFamily=Verdana;fontSize=12;exitX=0.5;exitY=1;exitDx=0;exitDy=0;" parent="1" source="yR00Pz26jBC9L6xIw8Jb-101" target="62893188c0fa7362-2" edge="1">
          <mxGeometry x="-0.359" y="-11" relative="1" as="geometry">
            <mxPoint as="offset" />
          </mxGeometry>
        </mxCell>
        <mxCell id="62893188c0fa7362-8" value="&lt;span&gt;Container&lt;br&gt;&lt;/span&gt;" style="whiteSpace=wrap;html=1;rounded=1;shadow=1;labelBackgroundColor=none;strokeWidth=1;fontFamily=Verdana;fontSize=12;align=center;" parent="1" vertex="1">
          <mxGeometry x="240" y="180" width="120" height="60" as="geometry" />
        </mxCell>
        <mxCell id="yR00Pz26jBC9L6xIw8Jb-28" style="edgeStyle=none;rounded=0;orthogonalLoop=1;jettySize=auto;html=1;exitX=0.5;exitY=1;exitDx=0;exitDy=0;endArrow=none;endFill=0;" edge="1" parent="1" source="62893188c0fa7362-9" target="yR00Pz26jBC9L6xIw8Jb-29">
          <mxGeometry relative="1" as="geometry">
            <mxPoint x="550" y="350" as="targetPoint" />
          </mxGeometry>
        </mxCell>
        <mxCell id="62893188c0fa7362-9" value="&lt;span&gt;Container&lt;/span&gt;" style="whiteSpace=wrap;html=1;rounded=1;shadow=1;labelBackgroundColor=none;strokeWidth=1;fontFamily=Verdana;fontSize=12;align=center;" parent="1" vertex="1">
          <mxGeometry x="580" y="160" width="120" height="60" as="geometry" />
        </mxCell>
        <mxCell id="yR00Pz26jBC9L6xIw8Jb-7" style="edgeStyle=none;rounded=0;orthogonalLoop=1;jettySize=auto;html=1;exitX=0.5;exitY=1;exitDx=0;exitDy=0;entryX=0.5;entryY=0;entryDx=0;entryDy=0;endArrow=none;endFill=0;" edge="1" parent="1" source="62893188c0fa7362-12" target="62893188c0fa7362-13">
          <mxGeometry relative="1" as="geometry" />
        </mxCell>
        <mxCell id="62893188c0fa7362-12" value="&lt;span&gt;Column&lt;br&gt;&lt;/span&gt;" style="whiteSpace=wrap;html=1;rounded=1;shadow=1;labelBackgroundColor=none;strokeWidth=1;fontFamily=Verdana;fontSize=12;align=center;" parent="1" vertex="1">
          <mxGeometry x="240" y="290" width="120" height="60" as="geometry" />
        </mxCell>
        <mxCell id="yR00Pz26jBC9L6xIw8Jb-10" style="edgeStyle=none;rounded=0;orthogonalLoop=1;jettySize=auto;html=1;exitX=0;exitY=0.5;exitDx=0;exitDy=0;entryX=0.5;entryY=0;entryDx=0;entryDy=0;endArrow=none;endFill=0;" edge="1" parent="1" source="62893188c0fa7362-13" target="yR00Pz26jBC9L6xIw8Jb-9">
          <mxGeometry relative="1" as="geometry" />
        </mxCell>
        <mxCell id="yR00Pz26jBC9L6xIw8Jb-14" style="edgeStyle=none;rounded=0;orthogonalLoop=1;jettySize=auto;html=1;exitX=1;exitY=0.5;exitDx=0;exitDy=0;entryX=0.5;entryY=0;entryDx=0;entryDy=0;endArrow=none;endFill=0;" edge="1" parent="1" source="62893188c0fa7362-13" target="yR00Pz26jBC9L6xIw8Jb-13">
          <mxGeometry relative="1" as="geometry" />
        </mxCell>
        <mxCell id="62893188c0fa7362-13" value="&lt;span&gt;Widget&lt;br&gt;&lt;/span&gt;" style="whiteSpace=wrap;html=1;rounded=1;shadow=1;labelBackgroundColor=none;strokeWidth=1;fontFamily=Verdana;fontSize=12;align=center;" parent="1" vertex="1">
          <mxGeometry x="240" y="395" width="120" height="60" as="geometry" />
        </mxCell>
        <mxCell id="62893188c0fa7362-14" value="" style="rounded=0;html=1;labelBackgroundColor=none;startArrow=none;startFill=0;startSize=5;endArrow=none;endFill=0;endSize=5;jettySize=auto;orthogonalLoop=1;strokeWidth=1;fontFamily=Verdana;fontSize=12" parent="1" source="62893188c0fa7362-2" target="62893188c0fa7362-8" edge="1">
          <mxGeometry x="-0.2" y="-14" relative="1" as="geometry">
            <mxPoint as="offset" />
          </mxGeometry>
        </mxCell>
        <mxCell id="62893188c0fa7362-18" value="" style="rounded=0;html=1;labelBackgroundColor=none;startArrow=none;startFill=0;startSize=5;endArrow=none;endFill=0;endSize=5;jettySize=auto;orthogonalLoop=1;strokeWidth=1;fontFamily=Verdana;fontSize=12" parent="1" source="62893188c0fa7362-8" target="62893188c0fa7362-12" edge="1">
          <mxGeometry x="-0.2168" y="-14" relative="1" as="geometry">
            <mxPoint as="offset" />
          </mxGeometry>
        </mxCell>
        <mxCell id="yR00Pz26jBC9L6xIw8Jb-48" style="edgeStyle=none;rounded=0;orthogonalLoop=1;jettySize=auto;html=1;exitX=0.25;exitY=1;exitDx=0;exitDy=0;entryX=0.5;entryY=0;entryDx=0;entryDy=0;endArrow=none;endFill=0;" edge="1" parent="1" source="yR00Pz26jBC9L6xIw8Jb-1" target="yR00Pz26jBC9L6xIw8Jb-45">
          <mxGeometry relative="1" as="geometry" />
        </mxCell>
        <mxCell id="yR00Pz26jBC9L6xIw8Jb-60" style="edgeStyle=none;rounded=0;orthogonalLoop=1;jettySize=auto;html=1;entryX=0.5;entryY=0;entryDx=0;entryDy=0;endArrow=none;endFill=0;" edge="1" parent="1" target="yR00Pz26jBC9L6xIw8Jb-59">
          <mxGeometry relative="1" as="geometry">
            <mxPoint x="1380" y="476" as="sourcePoint" />
          </mxGeometry>
        </mxCell>
        <mxCell id="yR00Pz26jBC9L6xIw8Jb-61" style="edgeStyle=none;rounded=0;orthogonalLoop=1;jettySize=auto;html=1;entryX=0.5;entryY=0;entryDx=0;entryDy=0;endArrow=none;endFill=0;exitX=0.427;exitY=1.013;exitDx=0;exitDy=0;exitPerimeter=0;" edge="1" parent="1" source="yR00Pz26jBC9L6xIw8Jb-70" target="yR00Pz26jBC9L6xIw8Jb-56">
          <mxGeometry relative="1" as="geometry">
            <mxPoint x="1400" y="475" as="sourcePoint" />
          </mxGeometry>
        </mxCell>
        <mxCell id="yR00Pz26jBC9L6xIw8Jb-62" style="edgeStyle=none;rounded=0;orthogonalLoop=1;jettySize=auto;html=1;entryX=0.5;entryY=0;entryDx=0;entryDy=0;endArrow=none;endFill=0;" edge="1" parent="1" source="yR00Pz26jBC9L6xIw8Jb-70" target="yR00Pz26jBC9L6xIw8Jb-57">
          <mxGeometry relative="1" as="geometry" />
        </mxCell>
        <mxCell id="yR00Pz26jBC9L6xIw8Jb-63" style="edgeStyle=none;rounded=0;orthogonalLoop=1;jettySize=auto;html=1;entryX=0.5;entryY=0;entryDx=0;entryDy=0;endArrow=none;endFill=0;" edge="1" parent="1" source="yR00Pz26jBC9L6xIw8Jb-70" target="yR00Pz26jBC9L6xIw8Jb-58">
          <mxGeometry relative="1" as="geometry" />
        </mxCell>
        <mxCell id="yR00Pz26jBC9L6xIw8Jb-64" style="edgeStyle=none;rounded=0;orthogonalLoop=1;jettySize=auto;html=1;exitX=1;exitY=0.75;exitDx=0;exitDy=0;entryX=0.5;entryY=0;entryDx=0;entryDy=0;endArrow=none;endFill=0;" edge="1" parent="1" source="yR00Pz26jBC9L6xIw8Jb-70" target="yR00Pz26jBC9L6xIw8Jb-44">
          <mxGeometry relative="1" as="geometry" />
        </mxCell>
        <mxCell id="yR00Pz26jBC9L6xIw8Jb-66" style="edgeStyle=none;rounded=0;orthogonalLoop=1;jettySize=auto;html=1;exitX=0;exitY=0.75;exitDx=0;exitDy=0;entryX=0.5;entryY=0;entryDx=0;entryDy=0;endArrow=none;endFill=0;" edge="1" parent="1" source="yR00Pz26jBC9L6xIw8Jb-70" target="yR00Pz26jBC9L6xIw8Jb-65">
          <mxGeometry relative="1" as="geometry" />
        </mxCell>
        <mxCell id="yR00Pz26jBC9L6xIw8Jb-68" style="edgeStyle=none;rounded=0;orthogonalLoop=1;jettySize=auto;html=1;exitX=0.5;exitY=1;exitDx=0;exitDy=0;entryX=0.5;entryY=0;entryDx=0;entryDy=0;endArrow=none;endFill=0;" edge="1" parent="1" source="yR00Pz26jBC9L6xIw8Jb-1" target="yR00Pz26jBC9L6xIw8Jb-67">
          <mxGeometry relative="1" as="geometry" />
        </mxCell>
        <mxCell id="yR00Pz26jBC9L6xIw8Jb-1" value="Scaffold" style="rounded=1;whiteSpace=wrap;html=1;" vertex="1" parent="1">
          <mxGeometry x="1120" y="70" width="120" height="60" as="geometry" />
        </mxCell>
        <mxCell id="yR00Pz26jBC9L6xIw8Jb-12" style="edgeStyle=none;rounded=0;orthogonalLoop=1;jettySize=auto;html=1;exitX=0.5;exitY=1;exitDx=0;exitDy=0;entryX=0.5;entryY=0;entryDx=0;entryDy=0;endArrow=none;endFill=0;" edge="1" parent="1" source="yR00Pz26jBC9L6xIw8Jb-9" target="yR00Pz26jBC9L6xIw8Jb-11">
          <mxGeometry relative="1" as="geometry" />
        </mxCell>
        <mxCell id="yR00Pz26jBC9L6xIw8Jb-9" value="Container" style="rounded=1;whiteSpace=wrap;html=1;" vertex="1" parent="1">
          <mxGeometry x="100" y="470" width="120" height="60" as="geometry" />
        </mxCell>
        <mxCell id="yR00Pz26jBC9L6xIw8Jb-11" value="Image" style="rounded=1;whiteSpace=wrap;html=1;" vertex="1" parent="1">
          <mxGeometry x="100" y="570" width="120" height="60" as="geometry" />
        </mxCell>
        <mxCell id="yR00Pz26jBC9L6xIw8Jb-17" style="edgeStyle=none;rounded=0;orthogonalLoop=1;jettySize=auto;html=1;exitX=0.5;exitY=1;exitDx=0;exitDy=0;endArrow=none;endFill=0;" edge="1" parent="1" source="yR00Pz26jBC9L6xIw8Jb-13" target="yR00Pz26jBC9L6xIw8Jb-16">
          <mxGeometry relative="1" as="geometry" />
        </mxCell>
        <mxCell id="yR00Pz26jBC9L6xIw8Jb-13" value="Button" style="rounded=1;whiteSpace=wrap;html=1;" vertex="1" parent="1">
          <mxGeometry x="350" y="470" width="120" height="60" as="geometry" />
        </mxCell>
        <mxCell id="yR00Pz26jBC9L6xIw8Jb-15" style="edgeStyle=none;rounded=0;orthogonalLoop=1;jettySize=auto;html=1;exitX=0.5;exitY=1;exitDx=0;exitDy=0;endArrow=none;endFill=0;" edge="1" parent="1" source="yR00Pz26jBC9L6xIw8Jb-13" target="yR00Pz26jBC9L6xIw8Jb-13">
          <mxGeometry relative="1" as="geometry" />
        </mxCell>
        <mxCell id="yR00Pz26jBC9L6xIw8Jb-16" value="Text" style="rounded=1;whiteSpace=wrap;html=1;" vertex="1" parent="1">
          <mxGeometry x="350" y="570" width="120" height="60" as="geometry" />
        </mxCell>
        <mxCell id="yR00Pz26jBC9L6xIw8Jb-25" style="edgeStyle=none;rounded=0;orthogonalLoop=1;jettySize=auto;html=1;exitX=0.5;exitY=1;exitDx=0;exitDy=0;endArrow=none;endFill=0;" edge="1" parent="1" source="yR00Pz26jBC9L6xIw8Jb-20" target="yR00Pz26jBC9L6xIw8Jb-24">
          <mxGeometry relative="1" as="geometry" />
        </mxCell>
        <mxCell id="yR00Pz26jBC9L6xIw8Jb-20" value="AppBar" style="rounded=1;whiteSpace=wrap;html=1;" vertex="1" parent="1">
          <mxGeometry x="790" y="160" width="120" height="60" as="geometry" />
        </mxCell>
        <mxCell id="yR00Pz26jBC9L6xIw8Jb-26" style="edgeStyle=none;rounded=0;orthogonalLoop=1;jettySize=auto;html=1;exitX=0.5;exitY=1;exitDx=0;exitDy=0;endArrow=none;endFill=0;" edge="1" parent="1" source="yR00Pz26jBC9L6xIw8Jb-24" target="yR00Pz26jBC9L6xIw8Jb-27">
          <mxGeometry relative="1" as="geometry">
            <mxPoint x="630" y="470" as="targetPoint" />
          </mxGeometry>
        </mxCell>
        <mxCell id="yR00Pz26jBC9L6xIw8Jb-24" value="Widget" style="rounded=1;whiteSpace=wrap;html=1;" vertex="1" parent="1">
          <mxGeometry x="790" y="240" width="120" height="60" as="geometry" />
        </mxCell>
        <mxCell id="yR00Pz26jBC9L6xIw8Jb-27" value="Text" style="rounded=1;whiteSpace=wrap;html=1;" vertex="1" parent="1">
          <mxGeometry x="790" y="325" width="120" height="60" as="geometry" />
        </mxCell>
        <mxCell id="yR00Pz26jBC9L6xIw8Jb-30" style="edgeStyle=none;rounded=0;orthogonalLoop=1;jettySize=auto;html=1;exitX=0.5;exitY=1;exitDx=0;exitDy=0;endArrow=none;endFill=0;" edge="1" parent="1" source="yR00Pz26jBC9L6xIw8Jb-29" target="yR00Pz26jBC9L6xIw8Jb-31">
          <mxGeometry relative="1" as="geometry">
            <mxPoint x="550" y="440" as="targetPoint" />
          </mxGeometry>
        </mxCell>
        <mxCell id="yR00Pz26jBC9L6xIw8Jb-29" value="Padding" style="rounded=1;whiteSpace=wrap;html=1;" vertex="1" parent="1">
          <mxGeometry x="580" y="240" width="120" height="60" as="geometry" />
        </mxCell>
        <mxCell id="yR00Pz26jBC9L6xIw8Jb-34" style="edgeStyle=none;rounded=0;orthogonalLoop=1;jettySize=auto;html=1;exitX=0.5;exitY=1;exitDx=0;exitDy=0;endArrow=none;endFill=0;" edge="1" parent="1" source="yR00Pz26jBC9L6xIw8Jb-31" target="yR00Pz26jBC9L6xIw8Jb-35">
          <mxGeometry relative="1" as="geometry">
            <mxPoint x="580" y="440" as="targetPoint" />
          </mxGeometry>
        </mxCell>
        <mxCell id="yR00Pz26jBC9L6xIw8Jb-31" value="Column" style="rounded=1;whiteSpace=wrap;html=1;" vertex="1" parent="1">
          <mxGeometry x="580" y="325" width="120" height="55" as="geometry" />
        </mxCell>
        <mxCell id="yR00Pz26jBC9L6xIw8Jb-36" style="edgeStyle=none;rounded=0;orthogonalLoop=1;jettySize=auto;html=1;exitX=0.5;exitY=1;exitDx=0;exitDy=0;endArrow=none;endFill=0;" edge="1" parent="1" source="yR00Pz26jBC9L6xIw8Jb-35" target="yR00Pz26jBC9L6xIw8Jb-37">
          <mxGeometry relative="1" as="geometry">
            <mxPoint x="580" y="510" as="targetPoint" />
          </mxGeometry>
        </mxCell>
        <mxCell id="yR00Pz26jBC9L6xIw8Jb-38" style="edgeStyle=none;rounded=0;orthogonalLoop=1;jettySize=auto;html=1;exitX=0.5;exitY=1;exitDx=0;exitDy=0;endArrow=none;endFill=0;" edge="1" parent="1" source="yR00Pz26jBC9L6xIw8Jb-37" target="yR00Pz26jBC9L6xIw8Jb-39">
          <mxGeometry relative="1" as="geometry">
            <mxPoint x="690" y="480" as="targetPoint" />
          </mxGeometry>
        </mxCell>
        <mxCell id="yR00Pz26jBC9L6xIw8Jb-42" style="edgeStyle=none;rounded=0;orthogonalLoop=1;jettySize=auto;html=1;exitX=0.5;exitY=1;exitDx=0;exitDy=0;entryX=0.5;entryY=0;entryDx=0;entryDy=0;endArrow=none;endFill=0;" edge="1" parent="1" source="yR00Pz26jBC9L6xIw8Jb-35" target="yR00Pz26jBC9L6xIw8Jb-40">
          <mxGeometry relative="1" as="geometry" />
        </mxCell>
        <mxCell id="yR00Pz26jBC9L6xIw8Jb-35" value="Widget" style="rounded=1;whiteSpace=wrap;html=1;" vertex="1" parent="1">
          <mxGeometry x="660" y="400" width="120" height="60" as="geometry" />
        </mxCell>
        <mxCell id="yR00Pz26jBC9L6xIw8Jb-37" value="Button" style="rounded=1;whiteSpace=wrap;html=1;" vertex="1" parent="1">
          <mxGeometry x="580" y="530" width="120" height="60" as="geometry" />
        </mxCell>
        <mxCell id="yR00Pz26jBC9L6xIw8Jb-39" value="Text" style="rounded=1;whiteSpace=wrap;html=1;" vertex="1" parent="1">
          <mxGeometry x="580" y="620" width="120" height="60" as="geometry" />
        </mxCell>
        <mxCell id="yR00Pz26jBC9L6xIw8Jb-43" style="edgeStyle=none;rounded=0;orthogonalLoop=1;jettySize=auto;html=1;exitX=0.5;exitY=1;exitDx=0;exitDy=0;entryX=0.5;entryY=0;entryDx=0;entryDy=0;endArrow=none;endFill=0;" edge="1" parent="1" source="yR00Pz26jBC9L6xIw8Jb-40" target="yR00Pz26jBC9L6xIw8Jb-41">
          <mxGeometry relative="1" as="geometry" />
        </mxCell>
        <mxCell id="yR00Pz26jBC9L6xIw8Jb-40" value="Button" style="rounded=1;whiteSpace=wrap;html=1;" vertex="1" parent="1">
          <mxGeometry x="730" y="530" width="120" height="60" as="geometry" />
        </mxCell>
        <mxCell id="yR00Pz26jBC9L6xIw8Jb-41" value="Text" style="rounded=1;whiteSpace=wrap;html=1;" vertex="1" parent="1">
          <mxGeometry x="730" y="620" width="120" height="60" as="geometry" />
        </mxCell>
        <mxCell id="yR00Pz26jBC9L6xIw8Jb-82" style="edgeStyle=none;rounded=0;orthogonalLoop=1;jettySize=auto;html=1;exitX=0.5;exitY=1;exitDx=0;exitDy=0;entryX=0.5;entryY=0;entryDx=0;entryDy=0;endArrow=none;endFill=0;" edge="1" parent="1" source="yR00Pz26jBC9L6xIw8Jb-44" target="yR00Pz26jBC9L6xIw8Jb-78">
          <mxGeometry relative="1" as="geometry" />
        </mxCell>
        <mxCell id="yR00Pz26jBC9L6xIw8Jb-44" value="Container" style="rounded=1;whiteSpace=wrap;html=1;" vertex="1" parent="1">
          <mxGeometry x="1690" y="630" width="120" height="60" as="geometry" />
        </mxCell>
        <mxCell id="yR00Pz26jBC9L6xIw8Jb-49" style="edgeStyle=none;rounded=0;orthogonalLoop=1;jettySize=auto;html=1;exitX=0.5;exitY=1;exitDx=0;exitDy=0;endArrow=none;endFill=0;" edge="1" parent="1" source="yR00Pz26jBC9L6xIw8Jb-45" target="yR00Pz26jBC9L6xIw8Jb-46">
          <mxGeometry relative="1" as="geometry" />
        </mxCell>
        <mxCell id="yR00Pz26jBC9L6xIw8Jb-45" value="AppBar" style="rounded=1;whiteSpace=wrap;html=1;" vertex="1" parent="1">
          <mxGeometry x="1020" y="195" width="120" height="60" as="geometry" />
        </mxCell>
        <mxCell id="yR00Pz26jBC9L6xIw8Jb-50" style="edgeStyle=none;rounded=0;orthogonalLoop=1;jettySize=auto;html=1;exitX=0.5;exitY=1;exitDx=0;exitDy=0;entryX=0.5;entryY=0;entryDx=0;entryDy=0;endArrow=none;endFill=0;" edge="1" parent="1" source="yR00Pz26jBC9L6xIw8Jb-46" target="yR00Pz26jBC9L6xIw8Jb-47">
          <mxGeometry relative="1" as="geometry" />
        </mxCell>
        <mxCell id="yR00Pz26jBC9L6xIw8Jb-46" value="Widget" style="rounded=1;whiteSpace=wrap;html=1;" vertex="1" parent="1">
          <mxGeometry x="1020" y="275" width="120" height="60" as="geometry" />
        </mxCell>
        <mxCell id="yR00Pz26jBC9L6xIw8Jb-47" value="Text" style="rounded=1;whiteSpace=wrap;html=1;" vertex="1" parent="1">
          <mxGeometry x="1020" y="355" width="120" height="60" as="geometry" />
        </mxCell>
        <mxCell id="yR00Pz26jBC9L6xIw8Jb-51" style="edgeStyle=none;rounded=0;orthogonalLoop=1;jettySize=auto;html=1;exitX=1;exitY=0.5;exitDx=0;exitDy=0;entryX=1;entryY=0.25;entryDx=0;entryDy=0;endArrow=none;endFill=0;" edge="1" parent="1" source="yR00Pz26jBC9L6xIw8Jb-44" target="yR00Pz26jBC9L6xIw8Jb-44">
          <mxGeometry relative="1" as="geometry" />
        </mxCell>
        <mxCell id="yR00Pz26jBC9L6xIw8Jb-79" style="edgeStyle=none;rounded=0;orthogonalLoop=1;jettySize=auto;html=1;exitX=0.5;exitY=1;exitDx=0;exitDy=0;endArrow=none;endFill=0;" edge="1" parent="1" source="yR00Pz26jBC9L6xIw8Jb-56" target="yR00Pz26jBC9L6xIw8Jb-75">
          <mxGeometry relative="1" as="geometry" />
        </mxCell>
        <mxCell id="yR00Pz26jBC9L6xIw8Jb-56" value="Container" style="rounded=1;whiteSpace=wrap;html=1;" vertex="1" parent="1">
          <mxGeometry x="1170" y="630" width="120" height="60" as="geometry" />
        </mxCell>
        <mxCell id="yR00Pz26jBC9L6xIw8Jb-80" style="edgeStyle=none;rounded=0;orthogonalLoop=1;jettySize=auto;html=1;exitX=0.5;exitY=1;exitDx=0;exitDy=0;entryX=0.5;entryY=0;entryDx=0;entryDy=0;endArrow=none;endFill=0;" edge="1" parent="1" source="yR00Pz26jBC9L6xIw8Jb-57" target="yR00Pz26jBC9L6xIw8Jb-76">
          <mxGeometry relative="1" as="geometry" />
        </mxCell>
        <mxCell id="yR00Pz26jBC9L6xIw8Jb-57" value="Container" style="rounded=1;whiteSpace=wrap;html=1;" vertex="1" parent="1">
          <mxGeometry x="1430" y="630" width="120" height="60" as="geometry" />
        </mxCell>
        <mxCell id="yR00Pz26jBC9L6xIw8Jb-81" style="edgeStyle=none;rounded=0;orthogonalLoop=1;jettySize=auto;html=1;exitX=0.5;exitY=1;exitDx=0;exitDy=0;entryX=0.5;entryY=0;entryDx=0;entryDy=0;endArrow=none;endFill=0;" edge="1" parent="1" source="yR00Pz26jBC9L6xIw8Jb-58" target="yR00Pz26jBC9L6xIw8Jb-77">
          <mxGeometry relative="1" as="geometry" />
        </mxCell>
        <mxCell id="yR00Pz26jBC9L6xIw8Jb-58" value="Container" style="rounded=1;whiteSpace=wrap;html=1;" vertex="1" parent="1">
          <mxGeometry x="1560" y="630" width="120" height="60" as="geometry" />
        </mxCell>
        <mxCell id="yR00Pz26jBC9L6xIw8Jb-74" style="edgeStyle=none;rounded=0;orthogonalLoop=1;jettySize=auto;html=1;exitX=0.5;exitY=1;exitDx=0;exitDy=0;entryX=0.5;entryY=0;entryDx=0;entryDy=0;endArrow=none;endFill=0;" edge="1" parent="1" source="yR00Pz26jBC9L6xIw8Jb-59" target="yR00Pz26jBC9L6xIw8Jb-73">
          <mxGeometry relative="1" as="geometry" />
        </mxCell>
        <mxCell id="yR00Pz26jBC9L6xIw8Jb-59" value="Container" style="rounded=1;whiteSpace=wrap;html=1;" vertex="1" parent="1">
          <mxGeometry x="1300" y="630" width="120" height="60" as="geometry" />
        </mxCell>
        <mxCell id="yR00Pz26jBC9L6xIw8Jb-83" style="edgeStyle=none;rounded=0;orthogonalLoop=1;jettySize=auto;html=1;exitX=0.5;exitY=1;exitDx=0;exitDy=0;endArrow=none;endFill=0;" edge="1" parent="1" source="yR00Pz26jBC9L6xIw8Jb-65" target="yR00Pz26jBC9L6xIw8Jb-84">
          <mxGeometry relative="1" as="geometry">
            <mxPoint x="1100" y="740" as="targetPoint" />
          </mxGeometry>
        </mxCell>
        <mxCell id="yR00Pz26jBC9L6xIw8Jb-65" value="Button" style="rounded=1;whiteSpace=wrap;html=1;" vertex="1" parent="1">
          <mxGeometry x="1040" y="630" width="120" height="60" as="geometry" />
        </mxCell>
        <mxCell id="yR00Pz26jBC9L6xIw8Jb-71" style="edgeStyle=none;rounded=0;orthogonalLoop=1;jettySize=auto;html=1;exitX=0.5;exitY=1;exitDx=0;exitDy=0;endArrow=none;endFill=0;" edge="1" parent="1" source="yR00Pz26jBC9L6xIw8Jb-67" target="yR00Pz26jBC9L6xIw8Jb-70">
          <mxGeometry relative="1" as="geometry" />
        </mxCell>
        <mxCell id="yR00Pz26jBC9L6xIw8Jb-67" value="Column" style="rounded=1;whiteSpace=wrap;html=1;" vertex="1" parent="1">
          <mxGeometry x="1290" y="190" width="120" height="60" as="geometry" />
        </mxCell>
        <mxCell id="yR00Pz26jBC9L6xIw8Jb-70" value="Widget" style="rounded=1;whiteSpace=wrap;html=1;" vertex="1" parent="1">
          <mxGeometry x="1310" y="415" width="120" height="60" as="geometry" />
        </mxCell>
        <mxCell id="yR00Pz26jBC9L6xIw8Jb-73" value="TextField" style="rounded=1;whiteSpace=wrap;html=1;" vertex="1" parent="1">
          <mxGeometry x="1300" y="740" width="120" height="60" as="geometry" />
        </mxCell>
        <mxCell id="yR00Pz26jBC9L6xIw8Jb-75" value="TextField" style="rounded=1;whiteSpace=wrap;html=1;" vertex="1" parent="1">
          <mxGeometry x="1170" y="740" width="120" height="60" as="geometry" />
        </mxCell>
        <mxCell id="yR00Pz26jBC9L6xIw8Jb-76" value="TextField" style="rounded=1;whiteSpace=wrap;html=1;" vertex="1" parent="1">
          <mxGeometry x="1430" y="740" width="120" height="60" as="geometry" />
        </mxCell>
        <mxCell id="yR00Pz26jBC9L6xIw8Jb-77" value="TextField" style="rounded=1;whiteSpace=wrap;html=1;" vertex="1" parent="1">
          <mxGeometry x="1560" y="740" width="120" height="60" as="geometry" />
        </mxCell>
        <mxCell id="yR00Pz26jBC9L6xIw8Jb-78" value="TextField" style="rounded=1;whiteSpace=wrap;html=1;" vertex="1" parent="1">
          <mxGeometry x="1690" y="740" width="120" height="60" as="geometry" />
        </mxCell>
        <mxCell id="yR00Pz26jBC9L6xIw8Jb-84" value="Text" style="rounded=1;whiteSpace=wrap;html=1;" vertex="1" parent="1">
          <mxGeometry x="960" y="740" width="120" height="60" as="geometry" />
        </mxCell>
        <mxCell id="yR00Pz26jBC9L6xIw8Jb-86" style="edgeStyle=none;rounded=0;orthogonalLoop=1;jettySize=auto;html=1;exitX=0.5;exitY=1;exitDx=0;exitDy=0;endArrow=none;endFill=0;" edge="1" parent="1" source="yR00Pz26jBC9L6xIw8Jb-85" target="yR00Pz26jBC9L6xIw8Jb-96">
          <mxGeometry relative="1" as="geometry">
            <mxPoint x="1630" y="140" as="targetPoint" />
          </mxGeometry>
        </mxCell>
        <mxCell id="yR00Pz26jBC9L6xIw8Jb-88" style="edgeStyle=none;rounded=0;orthogonalLoop=1;jettySize=auto;html=1;exitX=0.75;exitY=1;exitDx=0;exitDy=0;endArrow=none;endFill=0;" edge="1" parent="1" source="yR00Pz26jBC9L6xIw8Jb-85" target="yR00Pz26jBC9L6xIw8Jb-89">
          <mxGeometry relative="1" as="geometry">
            <mxPoint x="1600" y="160" as="targetPoint" />
          </mxGeometry>
        </mxCell>
        <mxCell id="yR00Pz26jBC9L6xIw8Jb-85" value="Scaffold" style="rounded=1;whiteSpace=wrap;html=1;" vertex="1" parent="1">
          <mxGeometry x="1590" y="80" width="120" height="60" as="geometry" />
        </mxCell>
        <mxCell id="yR00Pz26jBC9L6xIw8Jb-91" style="edgeStyle=none;rounded=0;orthogonalLoop=1;jettySize=auto;html=1;exitX=0.5;exitY=1;exitDx=0;exitDy=0;endArrow=none;endFill=0;" edge="1" parent="1" source="yR00Pz26jBC9L6xIw8Jb-89" target="yR00Pz26jBC9L6xIw8Jb-92">
          <mxGeometry relative="1" as="geometry">
            <mxPoint x="1630" y="290" as="targetPoint" />
          </mxGeometry>
        </mxCell>
        <mxCell id="yR00Pz26jBC9L6xIw8Jb-89" value="Column" style="rounded=1;whiteSpace=wrap;html=1;" vertex="1" parent="1">
          <mxGeometry x="1750" y="170" width="120" height="60" as="geometry" />
        </mxCell>
        <mxCell id="yR00Pz26jBC9L6xIw8Jb-94" style="edgeStyle=none;rounded=0;orthogonalLoop=1;jettySize=auto;html=1;exitX=0.5;exitY=1;exitDx=0;exitDy=0;entryX=0.5;entryY=0;entryDx=0;entryDy=0;endArrow=none;endFill=0;" edge="1" parent="1" source="yR00Pz26jBC9L6xIw8Jb-92" target="yR00Pz26jBC9L6xIw8Jb-93">
          <mxGeometry relative="1" as="geometry" />
        </mxCell>
        <mxCell id="yR00Pz26jBC9L6xIw8Jb-92" value="Expanded" style="rounded=1;whiteSpace=wrap;html=1;" vertex="1" parent="1">
          <mxGeometry x="1750" y="250" width="120" height="60" as="geometry" />
        </mxCell>
        <mxCell id="yR00Pz26jBC9L6xIw8Jb-93" value="List" style="rounded=1;whiteSpace=wrap;html=1;" vertex="1" parent="1">
          <mxGeometry x="1750" y="330" width="120" height="60" as="geometry" />
        </mxCell>
        <mxCell id="yR00Pz26jBC9L6xIw8Jb-99" style="edgeStyle=none;rounded=0;orthogonalLoop=1;jettySize=auto;html=1;exitX=0.5;exitY=1;exitDx=0;exitDy=0;endArrow=none;endFill=0;" edge="1" parent="1" source="yR00Pz26jBC9L6xIw8Jb-96" target="yR00Pz26jBC9L6xIw8Jb-97">
          <mxGeometry relative="1" as="geometry" />
        </mxCell>
        <mxCell id="yR00Pz26jBC9L6xIw8Jb-96" value="AppBar" style="rounded=1;whiteSpace=wrap;html=1;" vertex="1" parent="1">
          <mxGeometry x="1600" y="170" width="120" height="60" as="geometry" />
        </mxCell>
        <mxCell id="yR00Pz26jBC9L6xIw8Jb-100" style="edgeStyle=none;rounded=0;orthogonalLoop=1;jettySize=auto;html=1;exitX=0.5;exitY=1;exitDx=0;exitDy=0;entryX=0.5;entryY=0;entryDx=0;entryDy=0;endArrow=none;endFill=0;" edge="1" parent="1" source="yR00Pz26jBC9L6xIw8Jb-97" target="yR00Pz26jBC9L6xIw8Jb-98">
          <mxGeometry relative="1" as="geometry" />
        </mxCell>
        <mxCell id="yR00Pz26jBC9L6xIw8Jb-97" value="Widget" style="rounded=1;whiteSpace=wrap;html=1;" vertex="1" parent="1">
          <mxGeometry x="1600" y="250" width="120" height="60" as="geometry" />
        </mxCell>
        <mxCell id="yR00Pz26jBC9L6xIw8Jb-98" value="Text" style="rounded=1;whiteSpace=wrap;html=1;" vertex="1" parent="1">
          <mxGeometry x="1600" y="330" width="120" height="60" as="geometry" />
        </mxCell>
        <mxCell id="yR00Pz26jBC9L6xIw8Jb-106" style="edgeStyle=none;rounded=0;orthogonalLoop=1;jettySize=auto;html=1;exitX=0.5;exitY=0;exitDx=0;exitDy=0;entryX=0;entryY=0.5;entryDx=0;entryDy=0;endArrow=none;endFill=0;" edge="1" parent="1" source="yR00Pz26jBC9L6xIw8Jb-101" target="62893188c0fa7362-1">
          <mxGeometry relative="1" as="geometry" />
        </mxCell>
        <mxCell id="yR00Pz26jBC9L6xIw8Jb-101" value="Widget" style="rounded=1;whiteSpace=wrap;html=1;" vertex="1" parent="1">
          <mxGeometry x="440" y="-60" width="120" height="60" as="geometry" />
        </mxCell>
        <mxCell id="yR00Pz26jBC9L6xIw8Jb-107" style="edgeStyle=none;rounded=0;orthogonalLoop=1;jettySize=auto;html=1;exitX=0.5;exitY=0;exitDx=0;exitDy=0;entryX=0.351;entryY=1.063;entryDx=0;entryDy=0;entryPerimeter=0;endArrow=none;endFill=0;" edge="1" parent="1" source="yR00Pz26jBC9L6xIw8Jb-102" target="62893188c0fa7362-1">
          <mxGeometry relative="1" as="geometry" />
        </mxCell>
        <mxCell id="yR00Pz26jBC9L6xIw8Jb-102" value="Widget" style="rounded=1;whiteSpace=wrap;html=1;" vertex="1" parent="1">
          <mxGeometry x="705" y="-60" width="120" height="60" as="geometry" />
        </mxCell>
        <mxCell id="yR00Pz26jBC9L6xIw8Jb-108" style="edgeStyle=none;rounded=0;orthogonalLoop=1;jettySize=auto;html=1;exitX=0.5;exitY=0;exitDx=0;exitDy=0;entryX=0.628;entryY=1.037;entryDx=0;entryDy=0;entryPerimeter=0;endArrow=none;endFill=0;" edge="1" parent="1" source="yR00Pz26jBC9L6xIw8Jb-103" target="62893188c0fa7362-1">
          <mxGeometry relative="1" as="geometry" />
        </mxCell>
        <mxCell id="yR00Pz26jBC9L6xIw8Jb-103" value="Widget" style="rounded=1;whiteSpace=wrap;html=1;" vertex="1" parent="1">
          <mxGeometry x="950" y="-60" width="120" height="60" as="geometry" />
        </mxCell>
        <mxCell id="yR00Pz26jBC9L6xIw8Jb-105" style="edgeStyle=none;rounded=0;orthogonalLoop=1;jettySize=auto;html=1;exitX=1;exitY=0.5;exitDx=0;exitDy=0;entryX=0.5;entryY=0;entryDx=0;entryDy=0;endArrow=none;endFill=0;" edge="1" parent="1" source="yR00Pz26jBC9L6xIw8Jb-104" target="yR00Pz26jBC9L6xIw8Jb-85">
          <mxGeometry relative="1" as="geometry" />
        </mxCell>
        <mxCell id="yR00Pz26jBC9L6xIw8Jb-109" style="edgeStyle=none;rounded=0;orthogonalLoop=1;jettySize=auto;html=1;exitX=0.5;exitY=0;exitDx=0;exitDy=0;entryX=1;entryY=0.5;entryDx=0;entryDy=0;endArrow=none;endFill=0;" edge="1" parent="1" source="yR00Pz26jBC9L6xIw8Jb-104" target="62893188c0fa7362-1">
          <mxGeometry relative="1" as="geometry" />
        </mxCell>
        <mxCell id="yR00Pz26jBC9L6xIw8Jb-104" value="Widget" style="rounded=1;whiteSpace=wrap;html=1;" vertex="1" parent="1">
          <mxGeometry x="1190" y="-60" width="120" height="60" as="geometry" />
        </mxCell>
      </root>
    </mxGraphModel>
  </diagram>
</mxfile>
